<svg width="18" height="21" viewBox="0 0 18 21" fill="none" xmlns="http://www.w3.org/2000/svg">
<path d="M11.2349 17.5C12.0999 17.5 12.5569 18.524 11.9799 19.168C11.6048 19.5871 11.1455 19.9223 10.632 20.1518C10.1185 20.3813 9.5624 20.5 8.99995 20.5C8.4375 20.5 7.88138 20.3813 7.3679 20.1518C6.85441 19.9223 6.3951 19.5871 6.01995 19.168C5.46795 18.552 5.86195 17.589 6.65395 17.507L6.76395 17.501L11.2349 17.5ZM8.99995 0.5C10.3579 0.5 11.5059 1.403 11.8749 2.641L11.9209 2.812L11.9289 2.855C13.0315 3.47671 13.971 4.35086 14.6705 5.4058C15.3699 6.46073 15.8094 7.66641 15.9529 8.924L15.9809 9.211L15.9999 9.5V12.431L16.0209 12.567C16.1579 13.3038 16.5656 13.9627 17.1639 14.414L17.3309 14.531L17.4929 14.63C18.3529 15.117 18.0529 16.396 17.1159 16.494L16.9999 16.5H0.999947C-0.0280527 16.5 -0.387053 15.136 0.506947 14.63C0.887977 14.4144 1.21719 14.118 1.47149 13.7616C1.72578 13.4052 1.89899 12.9974 1.97895 12.567L1.99995 12.424L2.00095 9.454C2.06192 8.14788 2.44211 6.87661 3.10823 5.75147C3.77436 4.62632 4.70611 3.68161 5.82195 3L6.06995 2.854L6.07995 2.811C6.22101 2.21283 6.54238 1.67241 7.0006 1.26285C7.45881 0.853278 8.03176 0.594321 8.64195 0.521L8.82395 0.504L8.99995 0.5Z" fill="#FF6E3F"/>
</svg>
