<svg width="12" height="12" viewBox="0 0 12 12" fill="none" xmlns="http://www.w3.org/2000/svg">
<path fill-rule="evenodd" clip-rule="evenodd" d="M5.9998 0.576172C3.266 0.576172 1.0498 2.79236 1.0498 5.52617C1.0498 8.26 3.266 10.4762 5.9998 10.4762C8.73363 10.4762 10.9498 8.26 10.9498 5.52617C10.9498 2.79236 8.73363 0.576172 5.9998 0.576172ZM7.19094 4.25468C7.3324 4.07134 7.59563 4.03737 7.779 4.1788C7.96231 4.32024 7.9963 4.58353 7.8549 4.76686L6.17569 6.94363C6.11844 7.01788 6.05167 7.10451 5.9845 7.17007C5.90445 7.24817 5.77221 7.34887 5.57997 7.35839C5.38772 7.3679 5.24619 7.28073 5.15882 7.21093C5.08548 7.15236 5.01048 7.07272 4.9462 7.00446L4.1717 6.18304C4.01285 6.01452 4.02065 5.7492 4.18913 5.59036C4.35761 5.43148 4.62296 5.43929 4.78181 5.60779L5.53274 6.40419L7.19094 4.25468Z" fill="#FAFAFA"/>
</svg>
