<svg width="12" height="12" viewBox="0 0 12 12" fill="none" xmlns="http://www.w3.org/2000/svg">
<path fill-rule="evenodd" clip-rule="evenodd" d="M6.3333 0.576172C3.59949 0.576172 1.3833 2.79236 1.3833 5.52617C1.3833 8.26 3.59949 10.4762 6.3333 10.4762C9.06713 10.4762 11.2833 8.26 11.2833 5.52617C11.2833 2.79236 9.06713 0.576172 6.3333 0.576172ZM5.91402 4.0902C5.91402 3.85864 6.10173 3.67093 6.33329 3.67093C6.56485 3.67093 6.75256 3.85864 6.75256 4.0902V5.1069H7.7693C8.00084 5.1069 8.18856 5.29461 8.18856 5.52617C8.18856 5.75772 8.00084 5.94544 7.76924 5.94544H6.75256V6.96217C6.75256 7.19372 6.56485 7.38143 6.33329 7.38143C6.10173 7.38143 5.91402 7.19372 5.91402 6.96211V5.94544H4.89733C4.66577 5.94544 4.47806 5.75772 4.47806 5.52617C4.47806 5.29461 4.66577 5.1069 4.89733 5.1069H5.91402V4.0902Z" fill="#FF6E3F"/>
</svg>
