<svg width="23" height="24" viewBox="0 0 23 24" fill="none" xmlns="http://www.w3.org/2000/svg">
<g id="icon/check">
<path id="Vector" fill-rule="evenodd" clip-rule="evenodd" d="M11.5 0.5C5.14873 0.5 0 5.64873 0 12C0 18.3513 5.14873 23.5 11.5 23.5C17.8513 23.5 23 18.3513 23 12C23 5.64873 17.8513 0.5 11.5 0.5ZM14.2673 9.04603C14.5959 8.6201 15.2075 8.54117 15.6335 8.86975C16.0594 9.19834 16.1383 9.81002 15.8098 10.236L11.9086 15.2931C11.7756 15.4656 11.6205 15.6668 11.4644 15.8191C11.2785 16.0006 10.9713 16.2346 10.5246 16.2567C10.078 16.2788 9.74918 16.0762 9.54619 15.9141C9.37582 15.778 9.20157 15.593 9.05224 15.4344L7.25288 13.526C6.88384 13.1345 6.90197 12.5181 7.29338 12.1491C7.6848 11.78 8.30126 11.7982 8.67031 12.1896L10.4149 14.0398L14.2673 9.04603Z" fill="#0F851A"/>
</g>
</svg>
