<svg width="17" height="16" viewBox="0 0 17 16" fill="none" xmlns="http://www.w3.org/2000/svg">
<path d="M0.839958 14.0186C0.386681 14.4718 0.386681 15.2066 0.839958 15.6599C1.29322 16.1132 2.02811 16.1132 2.48138 15.6599L8.49997 9.6413L14.5186 15.6599C14.9718 16.1132 15.7068 16.1132 16.16 15.6599C16.6133 15.2066 16.6133 14.4718 16.16 14.0186L10.1415 7.99991L16.1599 1.98138C16.6132 1.52811 16.6132 0.793221 16.1599 0.339958C15.7066 -0.113319 14.9718 -0.113319 14.5186 0.339958L8.49997 6.35848L2.48146 0.339958C2.02818 -0.113319 1.2933 -0.113319 0.840036 0.339958C0.386758 0.793221 0.386758 1.52811 0.840036 1.98138L6.85856 7.99991L0.839958 14.0186Z" fill="#C0C0C0"/>
</svg>
