<svg width="23" height="24" viewBox="0 0 23 24" fill="none" xmlns="http://www.w3.org/2000/svg">
<path d="M4.97973 4.25195C1.1311 6.3009 0 10.033 0 12.0597C0 14.9497 2.3 21.3076 11.5 21.3076C15.1855 21.3076 17.7637 20.2873 19.5303 18.8783L14.5401 13.8621C14.0207 14.8609 13.0073 15.5277 11.5 15.5277C9.2 15.5277 8.05 13.9751 8.05 12.0597C8.05 10.7343 8.60068 9.58261 9.70203 8.99887L4.97973 4.25195Z" fill="#C0C0C0"/>
<path d="M14.9431 11.8153C14.8523 10.0812 13.7852 8.69832 11.7419 8.59738L6.69238 3.52158C8.03374 3.07599 9.6231 2.81152 11.4995 2.81152C20.6995 2.81152 22.9995 9.16947 22.9995 12.0595C22.9995 13.4827 22.4416 15.7472 20.7764 17.679L14.9431 11.8153Z" fill="#C0C0C0"/>
<path d="M0.303071 0.757505C0.638155 0.420675 1.18143 0.420675 1.51652 0.757505L22.6813 22.0325C23.0164 22.3693 23.0164 22.9155 22.6813 23.2523C22.3461 23.5891 21.8029 23.5891 21.4678 23.2523L0.303071 1.97728C-0.0320132 1.64044 -0.0320132 1.09433 0.303071 0.757505Z" fill="#C0C0C0"/>
</svg>
