<svg width="11" height="11" viewBox="0 0 11 11" fill="none" xmlns="http://www.w3.org/2000/svg">
<path d="M8.33615 1.40052L8.86965 1.87834C9.14234 2.12254 9.37736 2.33296 9.54274 2.52664C9.72001 2.73421 9.85828 2.96815 9.87395 3.26458C9.88963 3.56102 9.77682 3.80812 9.62244 4.03306C9.4784 4.24297 9.26692 4.47677 9.02151 4.74813L4.77901 9.43933C4.54762 9.69563 4.3646 9.89836 4.12209 10.025C3.87958 10.1515 3.60794 10.1861 3.26449 10.2298L2.23988 10.361C1.96702 10.396 1.72029 10.4276 1.51923 10.4252C1.29992 10.4225 1.06115 10.3798 0.860736 10.2004C0.660321 10.0208 0.59266 9.78902 0.566926 9.57232C0.543325 9.37355 0.54903 9.12605 0.555343 8.85232L0.578888 7.82464C0.586489 7.48018 0.592506 7.20771 0.693519 6.95443C0.794538 6.7011 0.977908 6.4987 1.20975 6.24279L5.4523 1.55162C5.69769 1.28024 5.90911 1.04641 6.10376 0.881829C6.31237 0.705438 6.54744 0.567839 6.84532 0.55223C7.1432 0.536624 7.39153 0.648893 7.61758 0.802508C7.8285 0.945838 8.06346 1.15629 8.33615 1.40052Z" fill="#8A8A8A"/>
<path d="M6.17359 9.62695C5.94506 9.62695 5.75977 9.81137 5.75977 10.0388C5.75977 10.2663 5.94506 10.4506 6.17359 10.4506H10.0362C10.2648 10.4506 10.4501 10.2663 10.4501 10.0388C10.4501 9.81137 10.2648 9.62695 10.0362 9.62695H6.17359Z" fill="#8A8A8A"/>
</svg>
