<svg width="36" height="35" viewBox="0 0 36 35" fill="none" xmlns="http://www.w3.org/2000/svg">
<path fill-rule="evenodd" clip-rule="evenodd" d="M18 1.75C9.30152 1.75 2.25 8.80152 2.25 17.5C2.25 26.1986 9.30152 33.25 18 33.25C26.6986 33.25 33.75 26.1986 33.75 17.5C33.75 8.80152 26.6986 1.75 18 1.75ZM16.6659 12.931C16.6659 12.1942 17.2632 11.597 18 11.597C18.7367 11.597 19.334 12.1942 19.334 12.931V16.1659H22.5691C23.3058 16.1659 23.9031 16.7632 23.9031 17.5C23.9031 18.2368 23.3058 18.834 22.5689 18.834H19.334V22.0691C19.334 22.8058 18.7367 23.4031 18 23.4031C17.2632 23.4031 16.6659 22.8058 16.6659 22.0689V18.834H13.431C12.6942 18.834 12.097 18.2368 12.097 17.5C12.097 16.7632 12.6942 16.1659 13.431 16.1659H16.6659V12.931Z" fill="#8A8A8A"/>
</svg>
