<svg width="20" height="21" viewBox="0 0 20 21" fill="none" xmlns="http://www.w3.org/2000/svg">
<path d="M10.0723 1.66113C11.61 1.67366 13.1185 2.08459 14.4502 2.85352C15.803 3.63463 16.9269 4.75753 17.708 6.11035C18.4891 7.46329 18.9004 8.99832 18.9004 10.5605C18.9004 12.1228 18.4891 13.6578 17.708 15.0107C16.9269 16.3637 15.8031 17.4874 14.4502 18.2686C13.0972 19.0497 11.5622 19.4609 10 19.4609C8.43778 19.4609 6.90273 19.0497 5.5498 18.2686C4.19688 17.4874 3.0731 16.3637 2.29199 15.0107C1.51237 13.6603 1.10114 12.1285 1.09961 10.5693L1.10449 10.2725C1.15433 8.7356 1.60142 7.23742 2.40234 5.9248C3.20342 4.61209 4.33167 3.52944 5.67578 2.78223C7.01987 2.03505 8.53451 1.64864 10.0723 1.66113ZM12.8496 6.16016C12.4387 6.16026 12.0445 6.32377 11.7539 6.61426L9.54492 8.82227C9.61251 8.61854 9.65037 8.40422 9.65039 8.18555C9.65039 7.64852 9.43635 7.13366 9.05664 6.75391C8.67688 6.37415 8.16206 6.16016 7.625 6.16016C7.08794 6.16016 6.57312 6.37415 6.19336 6.75391C5.81365 7.13366 5.59961 7.64852 5.59961 8.18555C5.59965 8.72255 5.81364 9.23747 6.19336 9.61719C6.57311 9.9969 7.08797 10.21 7.625 10.21C7.84365 10.21 8.058 10.173 8.26172 10.1055L6.05371 12.3145L6.04688 12.3223C5.76463 12.6146 5.60781 13.0058 5.61133 13.4121C5.61486 13.8185 5.77805 14.2077 6.06543 14.4951C6.3528 14.7824 6.74208 14.9447 7.14844 14.9482C7.55469 14.9517 7.94602 14.7959 8.23828 14.5137L10.4551 12.2969C10.3872 12.5011 10.3496 12.7163 10.3496 12.9355C10.3497 13.4725 10.5636 13.9875 10.9434 14.3672C11.3231 14.7469 11.838 14.96 12.375 14.96C12.912 14.96 13.4269 14.7469 13.8066 14.3672C14.1864 13.9875 14.4003 13.4725 14.4004 12.9355C14.4004 12.3985 14.1863 11.8837 13.8066 11.5039C13.4269 11.1241 12.9121 10.9102 12.375 10.9102C12.1558 10.9102 11.9405 10.9467 11.7363 11.0146L13.9463 8.80664C14.2369 8.51597 14.3994 8.12097 14.3994 7.70996C14.3993 7.29912 14.2368 6.90482 13.9463 6.61426C13.6556 6.32368 13.2606 6.16016 12.8496 6.16016Z" stroke="#8A8A8A" stroke-width="1.2"/>
</svg>
