<svg width="20" height="21" viewBox="0 0 20 21" fill="none" xmlns="http://www.w3.org/2000/svg">
<path d="M14.75 2.33344C16.1942 3.16723 17.3935 4.36649 18.2273 5.81068C19.0611 7.25486 19.5 8.89308 19.5 10.5607C19.5 12.2283 19.061 13.8665 18.2272 15.3107C17.3934 16.7548 16.1941 17.9541 14.7499 18.7879C13.3057 19.6216 11.6675 20.0606 9.99985 20.0605C8.33224 20.0605 6.69402 19.6215 5.24984 18.7877C3.80567 17.9539 2.60643 16.7546 1.77265 15.3104C0.938881 13.8662 0.499958 12.228 0.5 10.5604L0.50475 10.2526C0.557953 8.61193 1.03537 7.01306 1.89046 5.61185C2.74554 4.21064 3.94912 3.05491 5.38385 2.25732C6.81857 1.45974 8.43549 1.04752 10.077 1.06086C11.7184 1.0742 13.3284 1.51264 14.75 2.33344ZM12.375 11.5104C11.9971 11.5104 11.6346 11.6605 11.3674 11.9277C11.1001 12.195 10.95 12.5574 10.95 12.9354C10.95 13.3133 11.1001 13.6757 11.3674 13.943C11.6346 14.2102 11.9971 14.3603 12.375 14.3603C12.7529 14.3603 13.1154 14.2102 13.3826 13.943C13.6499 13.6757 13.8 13.3133 13.8 12.9354C13.8 12.5574 13.6499 12.195 13.3826 11.9277C13.1154 11.6605 12.7529 11.5104 12.375 11.5104ZM13.5216 7.03875C13.3435 6.86065 13.1019 6.76061 12.85 6.76061C12.5981 6.76061 12.3565 6.86065 12.1784 7.03875L6.47835 12.7387C6.3053 12.9179 6.20955 13.1578 6.21171 13.4069C6.21387 13.656 6.31378 13.8943 6.48992 14.0704C6.66606 14.2466 6.90433 14.3465 7.15342 14.3486C7.40251 14.3508 7.64248 14.255 7.82165 14.082L13.5216 8.38204C13.6997 8.20389 13.7998 7.9623 13.7998 7.7104C13.7998 7.45849 13.6997 7.2169 13.5216 7.03875ZM7.625 6.7604C7.24707 6.7604 6.88461 6.91054 6.61737 7.17777C6.35013 7.44501 6.2 7.80746 6.2 8.18539C6.2 8.56332 6.35013 8.92577 6.61737 9.19301C6.88461 9.46025 7.24707 9.61038 7.625 9.61038C8.00293 9.61038 8.36539 9.46025 8.63263 9.19301C8.89987 8.92577 9.05 8.56332 9.05 8.18539C9.05 7.80746 8.89987 7.44501 8.63263 7.17777C8.36539 6.91054 8.00293 6.7604 7.625 6.7604Z" fill="#FF6E3F"/>
</svg>
