<svg width="20" height="21" viewBox="0 0 20 21" fill="none" xmlns="http://www.w3.org/2000/svg">
<path d="M9.99978 1.93555C9.99978 1.76979 10.0656 1.61082 10.1828 1.49361C10.3001 1.37639 10.459 1.31055 10.6248 1.31055C11.6918 1.31055 12.7483 1.52071 13.7341 1.92903C14.7199 2.33735 15.6155 2.93583 16.37 3.6903C17.1245 4.44478 17.723 5.34047 18.1313 6.32624C18.5396 7.31201 18.7498 8.36856 18.7498 9.43555C18.7498 9.60131 18.6839 9.76028 18.5667 9.87749C18.4495 9.9947 18.2905 10.0605 18.1248 10.0605H10.6248C10.459 10.0605 10.3001 9.9947 10.1828 9.87749C10.0656 9.76028 9.99978 9.60131 9.99978 9.43555V1.93555ZM8.74978 4.46305C8.74979 4.37623 8.7317 4.29036 8.69668 4.21091C8.66166 4.13147 8.61048 4.06019 8.54638 4.00162C8.48229 3.94306 8.4067 3.89849 8.32442 3.87075C8.24215 3.84302 8.155 3.83273 8.06853 3.84055C6.64909 3.96996 5.29591 4.50118 4.1675 5.37196C3.0391 6.24274 2.18218 7.41704 1.69714 8.7573C1.2121 10.0976 1.11901 11.5483 1.42878 12.9396C1.73855 14.3308 2.43835 15.605 3.44621 16.6129C4.45407 17.6207 5.72826 18.3205 7.11952 18.6303C8.51079 18.9401 9.96151 18.847 11.3018 18.3619C12.642 17.8769 13.8163 17.02 14.6871 15.8916C15.5579 14.7632 16.0891 13.41 16.2185 11.9905C16.2262 11.9043 16.2158 11.8174 16.188 11.7353C16.1603 11.6533 16.1158 11.5779 16.0574 11.514C15.999 11.4501 15.9279 11.399 15.8487 11.3639C15.7695 11.3289 15.6839 11.3107 15.5973 11.3105H8.74978V4.46305Z" fill="#FF6E3F"/>
</svg>
