<svg width="18" height="18" viewBox="0 0 18 18" fill="none" xmlns="http://www.w3.org/2000/svg">
<path d="M9.62478 0.310547C9.45902 0.310547 9.30005 0.376395 9.18284 0.493605C9.06563 0.610815 8.99978 0.769787 8.99978 0.935547V8.43555C8.99978 8.60131 9.06563 8.76028 9.18284 8.87749C9.30005 8.9947 9.45902 9.06055 9.62478 9.06055H17.1248C17.2905 9.06055 17.4495 8.9947 17.5667 8.87749C17.6839 8.76028 17.7498 8.60131 17.7498 8.43555C17.7498 7.36856 17.5396 6.31201 17.1313 5.32624C16.723 4.34047 16.1245 3.44478 15.37 2.6903C14.6155 1.93583 13.7199 1.33735 12.7341 0.929026C11.7483 0.520706 10.6918 0.310547 9.62478 0.310547ZM10.2498 7.81055V1.58805C11.8509 1.734 13.3502 2.43646 14.487 3.5733C15.6239 4.71014 16.3263 6.20945 16.4723 7.81055H10.2498ZM7.74978 3.46305C7.74979 3.37623 7.7317 3.29036 7.69668 3.21091C7.66166 3.13147 7.61048 3.06019 7.54638 3.00162C7.48229 2.94306 7.4067 2.89849 7.32442 2.87075C7.24215 2.84302 7.155 2.83273 7.06853 2.84055C5.64909 2.96996 4.29591 3.50118 3.1675 4.37196C2.0391 5.24274 1.18218 6.41704 0.697141 7.7573C0.212098 9.09757 0.11901 10.5483 0.42878 11.9396C0.73855 13.3308 1.43835 14.605 2.44621 15.6129C3.45407 16.6207 4.72826 17.3205 6.11952 17.6303C7.51079 17.9401 8.96151 17.847 10.3018 17.3619C11.642 16.8769 12.8163 16.02 13.6871 14.8916C14.5579 13.7632 15.0891 12.41 15.2185 10.9905C15.2262 10.9043 15.2158 10.8174 15.188 10.7353C15.1603 10.6533 15.1158 10.5779 15.0574 10.514C14.999 10.4501 14.9279 10.399 14.8487 10.3639C14.7695 10.3289 14.6839 10.3107 14.5973 10.3105H7.74978V3.46305ZM1.49978 10.3105C1.49949 8.86973 1.99701 7.47306 2.90815 6.35692C3.81929 5.24077 5.08808 4.47371 6.49978 4.18555V10.9355C6.49978 11.1013 6.56563 11.2603 6.68284 11.3775C6.80005 11.4947 6.95902 11.5605 7.12478 11.5605H13.8748C13.5611 13.0747 12.6975 14.419 11.4507 15.3337C10.2039 16.2483 8.66239 16.6686 7.12389 16.5132C5.58538 16.3578 4.15904 15.6378 3.12035 14.4922C2.08165 13.3467 1.50429 11.8569 1.49978 10.3105Z" fill="#8A8A8A"/>
</svg>
