<svg width="18" height="19" viewBox="0 0 18 19" fill="none" xmlns="http://www.w3.org/2000/svg">
<path fill-rule="evenodd" clip-rule="evenodd" d="M0 10.3228C0 8.37437 -2.98023e-08 7.40016 0.33354 6.53882C0.5017 6.10456 0.73042 5.69592 1.01299 5.32489C1.57345 4.58898 2.40637 4.07507 4.07218 3.04729L4.25249 2.93604C6.29915 1.67328 7.32248 1.04189 8.44549 0.917367C8.81402 0.876503 9.186 0.876503 9.5545 0.917367C10.6775 1.04189 11.7009 1.67328 13.7475 2.93604L13.9278 3.04728C15.5936 4.07507 16.4265 4.58897 16.987 5.32489C17.2696 5.69592 17.4983 6.10456 17.6665 6.53882C18 7.40016 18 8.37437 18 10.3228C18 13.6874 18 15.3696 17.2139 16.5927C16.823 17.2009 16.3034 17.7171 15.6913 18.1056C14.4605 18.8867 12.7675 18.8867 9.3816 18.8867H8.61843C5.23249 18.8867 3.53951 18.8867 2.30866 18.1056C1.6966 17.7171 1.17705 17.2009 0.78613 16.5927C-5.96046e-08 15.3696 0 13.6874 0 10.3228ZM10.9991 17.392C10.5181 17.396 9.9827 17.3962 9.3816 17.3962H8.61843C8.01733 17.3962 7.4819 17.396 7.00085 17.392V13.7597C7.00085 12.6556 7.8959 11.7606 9 11.7606C10.1041 11.7606 10.9991 12.6556 10.9991 13.7597V17.392ZM12.4991 17.3555V13.7597C12.4991 11.8272 10.9325 10.2606 9 10.2606C7.06748 10.2606 5.50085 11.8272 5.50085 13.7597V17.3555C5.25008 17.343 5.01833 17.3268 4.80203 17.3057C3.91563 17.2192 3.45021 17.0615 3.11606 16.8494C2.68762 16.5775 2.32393 16.2161 2.05029 15.7904C1.83688 15.4584 1.67816 14.9959 1.59108 14.1151C1.50169 13.2109 1.5 12.035 1.5 10.3228C1.5 8.25643 1.52369 7.61586 1.73348 7.07409C1.85119 6.77011 2.01129 6.48406 2.20909 6.22434C2.56162 5.76146 3.09679 5.40356 4.86345 4.31355L5.04374 4.20231C6.08787 3.5581 6.79446 3.12354 7.37818 2.82699C7.9392 2.54197 8.29509 2.43381 8.61184 2.39869C8.86981 2.37008 9.1302 2.37008 9.3882 2.39869C9.7049 2.43381 10.0608 2.54197 10.6218 2.82699C11.2055 3.12354 11.9121 3.5581 12.9563 4.20231L13.1365 4.31355C14.9032 5.40356 15.4384 5.76146 15.7909 6.22434C15.9887 6.48406 16.1488 6.77011 16.2665 7.07409C16.4763 7.61586 16.5 8.25643 16.5 10.3228C16.5 12.035 16.4983 13.2109 16.4089 14.1151C16.3218 14.9959 16.1631 15.4584 15.9497 15.7904C15.6761 16.2161 15.3124 16.5775 14.8839 16.8494C14.5498 17.0615 14.0844 17.2192 13.198 17.3057C12.9817 17.3268 12.7499 17.343 12.4991 17.3555Z" fill="#8A8A8A"/>
</svg>
