<svg width="20" height="21" viewBox="0 0 20 21" fill="none" xmlns="http://www.w3.org/2000/svg">
<path d="M1.33354 6.53638C1 7.39771 1 8.37193 1 10.3204C1 13.6849 1 15.3672 1.78613 16.5903C2.17705 17.1984 2.6966 17.7147 3.30866 18.1031C4.03994 18.5673 4.93434 18.7556 6.25 18.8321V14.698C6.25 12.6269 7.92893 10.948 10 10.948C12.0711 10.948 13.75 12.6269 13.75 14.698V18.8321C15.0657 18.7556 15.9601 18.5673 16.6913 18.1031C17.3034 17.7147 17.823 17.1984 18.2139 16.5903C19 15.3672 19 13.6849 19 10.3204C19 8.37193 19 7.39771 18.6665 6.53638C18.4983 6.10212 18.2696 5.69348 17.987 5.32245C17.4265 4.58653 16.5936 4.07263 14.9278 3.04483L14.7475 2.9336C12.7009 1.67083 11.6775 1.03945 10.5545 0.914926C10.186 0.874061 9.81402 0.874061 9.44549 0.914926C8.32248 1.03945 7.29915 1.67083 5.25249 2.9336L5.0722 3.04483C3.40637 4.07263 2.57345 4.58653 2.01299 5.32245C1.73042 5.69348 1.5017 6.10212 1.33354 6.53638Z" fill="#FF6E3F"/>
<path d="M12.25 18.8775V14.6978C12.25 13.4552 11.2426 12.4478 10 12.4478C8.75736 12.4478 7.75 13.4552 7.75 14.6978V18.8775C8.30953 18.8841 8.92887 18.8841 9.61843 18.8841H10.3816C11.0711 18.8841 11.6905 18.8841 12.25 18.8775Z" fill="#FF6E3F"/>
</svg>
