<svg width="18" height="20" viewBox="0 0 18 20" fill="none" xmlns="http://www.w3.org/2000/svg">
<path fill-rule="evenodd" clip-rule="evenodd" d="M10.4728 0.588345C10.7268 0.619856 10.99 0.692579 11.2381 0.88065C11.483 1.06637 11.6319 1.30085 11.7414 1.54288C11.8374 1.75516 11.9204 2.01523 12.0064 2.285L12.0168 2.31756C12.0448 2.4053 12.0737 2.49666 12.1033 2.59138C12.2051 2.91688 12.4548 3.21356 12.8064 3.41971C13.1394 3.61499 13.484 3.68094 13.7899 3.61199C13.9153 3.58372 14.0355 3.55715 14.1498 3.5323L14.1816 3.52538C14.4569 3.4655 14.7191 3.40848 14.9473 3.38797C15.2059 3.36473 15.4759 3.38145 15.7551 3.50861C16.0382 3.63756 16.2361 3.83872 16.397 4.0564C16.5396 4.24936 16.6807 4.49509 16.8294 4.75423L17.4531 5.84071C17.6017 6.09935 17.743 6.34537 17.8382 6.56693C17.9453 6.81601 18.0246 7.09987 17.9923 7.43009C17.9601 7.75738 17.8312 8.0149 17.678 8.23419C17.5439 8.426 17.3617 8.62821 17.1737 8.83673L17.1504 8.86255C17.0735 8.94786 16.9924 9.03724 16.9074 9.13015C16.7091 9.34697 16.5934 9.67613 16.5934 10.0606C16.5934 10.4445 16.7089 10.773 16.9069 10.9894C16.9923 11.0827 17.0737 11.1725 17.1509 11.2581L17.1743 11.2841C17.3622 11.4925 17.5444 11.6947 17.6784 11.8864C17.8316 12.1057 17.9606 12.3632 17.9927 12.6904C18.0251 13.0206 17.9457 13.3044 17.8387 13.5535C17.7435 13.775 17.6023 14.021 17.4538 14.2796L16.8301 15.3662C16.6814 15.6254 16.5404 15.8711 16.3978 16.0642C16.2369 16.2819 16.039 16.4831 15.7558 16.6121C15.4766 16.7392 15.2066 16.756 14.948 16.7327C14.7197 16.7122 14.4575 16.6552 14.1822 16.5953L14.1362 16.5853C14.0263 16.5614 13.911 16.5359 13.7911 16.5089C13.4849 16.4399 13.14 16.5059 12.8067 16.7014C12.4548 16.9077 12.2049 17.2046 12.103 17.5304C12.0735 17.6249 12.0447 17.716 12.0167 17.8035L12.0064 17.8361C11.9203 18.1058 11.8374 18.3658 11.7414 18.5781C11.6319 18.8201 11.483 19.0546 11.2381 19.2403C10.9901 19.4283 10.7269 19.5011 10.473 19.5326C10.2478 19.5606 9.9813 19.5605 9.7014 19.5605H8.2982C8.01827 19.5605 7.75179 19.5606 7.52665 19.5326C7.2727 19.5011 7.00953 19.4283 6.76153 19.2403C6.51663 19.0546 6.3677 18.8201 6.25826 18.5781C6.16227 18.3658 6.07932 18.1058 5.99327 17.8361L5.98288 17.8035C5.95491 17.7159 5.92605 17.6246 5.89647 17.53C5.79467 17.2045 5.54495 16.9078 5.19334 16.7016C4.86029 16.5063 4.51572 16.4404 4.20982 16.5094C4.08432 16.5376 3.96402 16.5642 3.84959 16.5891L3.81779 16.596C3.54244 16.6559 3.28026 16.713 3.05197 16.7335C2.79335 16.7567 2.52336 16.74 2.24412 16.6128C1.96096 16.4838 1.76307 16.2826 1.60218 16.0649C1.45957 15.8719 1.31856 15.6261 1.16985 15.3669L0.546209 14.2804C0.397729 14.0217 0.256489 13.7757 0.161289 13.5542C0.0542691 13.3051 -0.025081 13.0213 0.00732903 12.6911C0.039449 12.3639 0.168379 12.1064 0.321589 11.8871C0.455609 11.6953 0.637889 11.4931 0.825849 11.2846L0.849109 11.2588C0.926029 11.1735 1.00716 11.0841 1.09219 10.9911C1.29053 10.7743 1.40616 10.4451 1.40616 10.0606C1.40616 9.67568 1.29042 9.3461 1.09182 9.129C1.00706 9.03634 0.926179 8.9472 0.849489 8.8621L0.826209 8.83627C0.638279 8.62782 0.456039 8.42567 0.322039 8.2339C0.168839 8.01467 0.0399191 7.75722 0.00778906 7.43001C-0.0246359 7.09986 0.0546891 6.81605 0.161679 6.56701C0.256839 6.34547 0.398039 6.09949 0.546469 5.84089L1.17001 4.75423C1.31872 4.49498 1.45971 4.2492 1.60233 4.05616C1.76322 3.83839 1.96111 3.63715 2.2443 3.50814C2.52356 3.38092 2.79357 3.36419 3.05222 3.38743C3.28053 3.40794 3.54274 3.46497 3.81813 3.52487L3.84995 3.53179C3.86209 3.53443 3.86651 3.53422 3.86651 3.53422C3.86859 3.53412 3.86925 3.53409 3.88348 3.53909C3.98794 3.56188 4.09714 3.58606 4.2106 3.61164C4.51633 3.68056 4.86071 3.61466 5.19359 3.4195C5.54506 3.21344 5.79466 2.91688 5.89641 2.59152C5.92603 2.49679 5.95492 2.40542 5.98293 2.31768L5.99331 2.28513C6.07935 2.01542 6.1623 1.75542 6.25828 1.54319C6.36771 1.30121 6.51662 1.06678 6.76148 0.881073C7.00945 0.693017 7.27257 0.620257 7.52649 0.588696C7.75162 0.560713 8.01808 0.56072 8.29799 0.560727L9.7012 0.560555C9.9811 0.560479 10.2477 0.560406 10.4728 0.588345ZM9 13.3105C10.7949 13.3105 12.25 11.8554 12.25 10.0605C12.25 8.26562 10.7949 6.81055 9 6.81055C7.20507 6.81055 5.75 8.26562 5.75 10.0605C5.75 11.8554 7.20507 13.3105 9 13.3105Z" fill="#FF6E3F"/>
</svg>
