<svg width="20" height="21" viewBox="0 0 20 21" fill="none" xmlns="http://www.w3.org/2000/svg">
<path fill-rule="evenodd" clip-rule="evenodd" d="M11.3113 2.03982C11.1767 2.02313 10.9931 2.02199 10.6688 2.02203L9.33068 2.02219C9.00643 2.02223 8.82284 2.02342 8.68836 2.04014C8.62838 2.04759 8.59765 2.05623 8.58333 2.06132C8.57298 2.065 8.56936 2.06785 8.56936 2.06785C8.56646 2.07005 8.56337 2.07245 8.55691 2.08132C8.54854 2.09282 8.53202 2.1187 8.50753 2.17287C8.45199 2.29568 8.39512 2.46999 8.29478 2.78436C8.26765 2.86936 8.23966 2.9579 8.21095 3.04969C7.97709 3.79751 7.45008 4.35454 6.86568 4.69717C6.30261 5.02729 5.61803 5.1979 4.92153 5.04089C4.79931 5.01334 4.68217 4.98745 4.57079 4.96324C4.25207 4.89396 4.07143 4.8559 3.93485 4.84363C3.82533 4.8338 3.79919 4.84682 3.79348 4.84966C3.79348 4.84966 3.76724 4.85571 3.6939 4.95498C3.60771 5.07165 3.50888 5.24161 3.33705 5.54107L2.74781 6.56796C2.5758 6.86773 2.47928 7.03826 2.42241 7.17064C2.39703 7.22971 2.38873 7.26117 2.386 7.27462C2.38552 7.27695 2.38504 7.27993 2.38504 7.27993L2.38636 7.28327C2.39044 7.29303 2.40265 7.31853 2.43603 7.36631C2.51219 7.47529 2.63242 7.61062 2.85242 7.85474C2.92683 7.93731 3.00534 8.02383 3.08761 8.11378C3.58749 8.66024 3.79049 9.38415 3.79049 10.0606C3.79049 10.7368 3.58756 11.4602 3.08797 12.0064C3.00543 12.0966 2.92668 12.1834 2.85205 12.2662C2.63202 12.5104 2.51177 12.6457 2.4356 12.7547C2.40221 12.8025 2.38999 12.828 2.38592 12.8378L2.38459 12.8411C2.38459 12.8411 2.38507 12.8441 2.38555 12.8465C2.38828 12.8599 2.39659 12.8914 2.42198 12.9505C2.47887 13.0828 2.57542 13.2534 2.74748 13.5532L3.33681 14.58C3.50865 14.8794 3.60748 15.0493 3.69367 15.166C3.76605 15.2639 3.79251 15.2709 3.79251 15.2709C3.79821 15.2738 3.82507 15.2871 3.93457 15.2773C4.07113 15.265 4.25174 15.227 4.57041 15.1577C4.68167 15.1335 4.79866 15.1076 4.92074 15.0801C5.61746 14.9231 6.30225 15.0938 6.86548 15.424C7.44998 15.7667 7.97711 16.3239 8.21101 17.0718C8.23968 17.1635 8.26764 17.252 8.29474 17.3369C8.39509 17.6513 8.45196 17.8256 8.50751 17.9485C8.53201 18.0026 8.54853 18.0285 8.5569 18.04C8.56336 18.0489 8.56623 18.0511 8.56913 18.0533C8.56913 18.0533 8.57297 18.0563 8.58332 18.06C8.59764 18.0651 8.62838 18.0737 8.68836 18.0812C8.82287 18.0979 9.00648 18.0991 9.33077 18.0991H10.6688C10.9931 18.0991 11.1767 18.0979 11.3113 18.0812C11.3712 18.0737 11.402 18.0651 11.4163 18.06C11.4266 18.0563 11.4303 18.0535 11.4303 18.0535C11.4332 18.0513 11.4363 18.0489 11.4427 18.04C11.4511 18.0285 11.4676 18.0026 11.4921 17.9485C11.5477 17.8256 11.6045 17.6513 11.7049 17.3369C11.7319 17.2521 11.7599 17.1638 11.7885 17.0722C12.0225 16.324 12.5498 15.7667 13.1345 15.4238C13.6979 15.0934 14.383 14.9225 15.0801 15.0796C15.2018 15.1071 15.3185 15.1329 15.4295 15.157C15.4313 15.1574 15.4332 15.1578 15.4351 15.1582C15.438 15.1588 15.4409 15.1594 15.4437 15.1601C15.7536 15.2274 15.9308 15.2645 16.0653 15.2766C16.1748 15.2864 16.201 15.2734 16.2067 15.2705C16.2067 15.2705 16.2339 15.2631 16.3063 15.1652C16.3925 15.0486 16.4913 14.8787 16.6631 14.5793L17.2525 13.5525C17.4246 13.2527 17.5211 13.0821 17.578 12.9497C17.6034 12.8907 17.6117 12.8592 17.6144 12.8457C17.6149 12.8434 17.6154 12.8404 17.6154 12.8404L17.6141 12.8371C17.61 12.8273 17.5978 12.8018 17.5644 12.754C17.4882 12.645 17.368 12.5097 17.148 12.2655C17.0731 12.1824 16.994 12.0953 16.9112 12.0048C16.4119 11.4591 16.2091 10.7362 16.2091 10.0606C16.2091 9.38452 16.412 8.66105 16.9116 8.1149C16.9941 8.02472 17.0728 7.93797 17.1475 7.85519C17.3675 7.611 17.4878 7.47562 17.564 7.3666C17.5974 7.31882 17.6096 7.2933 17.6136 7.28354L17.615 7.28018C17.615 7.28018 17.6145 7.2772 17.614 7.27486C17.6113 7.2614 17.603 7.22993 17.5776 7.17084C17.5207 7.03844 17.4241 6.86788 17.252 6.56807L16.6625 5.54131C16.4906 5.24197 16.3918 5.07207 16.3056 4.95546C16.2333 4.85757 16.2068 4.85054 16.2068 4.85054C16.2011 4.8477 16.1742 4.83434 16.0647 4.84417C15.9282 4.85644 15.7476 4.89449 15.429 4.96374C15.3178 4.98791 15.2009 5.01375 15.0789 5.04125C14.3822 5.19829 13.6974 5.02759 13.1342 4.69735C12.5497 4.35463 12.0226 3.79748 11.7887 3.04953C11.76 2.95774 11.7321 2.86921 11.7049 2.78422C11.6046 2.46976 11.5477 2.2954 11.4921 2.17256C11.4676 2.11838 11.4511 2.09249 11.4427 2.08099C11.4363 2.07212 11.4334 2.06989 11.4305 2.06769C11.4305 2.06769 11.4267 2.06467 11.4163 2.06099C11.402 2.0559 11.3713 2.04727 11.3113 2.03982ZM11.4728 0.588345C11.7268 0.619856 11.99 0.69258 12.238 0.88065C12.483 1.06637 12.6319 1.30085 12.7414 1.54288C12.8374 1.75517 12.9203 2.01523 13.0064 2.28501L13.0168 2.31756C13.0448 2.4053 13.0737 2.49667 13.1033 2.59138C13.2051 2.91688 13.4548 3.21356 13.8064 3.41972C14.1394 3.615 14.484 3.68094 14.7898 3.612C14.9153 3.58373 15.0355 3.55716 15.1498 3.5323L15.1816 3.52539C15.4569 3.4655 15.7191 3.40848 15.9473 3.38797C16.2059 3.36474 16.4759 3.38145 16.7551 3.50861C17.0382 3.63756 17.2361 3.83872 17.397 4.05641C17.5396 4.24938 17.6806 4.49508 17.8294 4.75423L18.4531 5.84072C18.6017 6.09936 18.743 6.34537 18.8382 6.56694C18.9452 6.81602 19.0246 7.09988 18.9922 7.4301C18.9601 7.75739 18.8312 8.01491 18.678 8.2342C18.5439 8.42601 18.3616 8.62822 18.1737 8.83674L18.1504 8.86256C18.0735 8.94788 17.9924 9.03725 17.9074 9.13016C17.7091 9.34698 17.5934 9.67614 17.5934 10.0606C17.5934 10.4445 17.7089 10.7731 17.9069 10.9895C17.9922 11.0828 18.0737 11.1725 18.1509 11.2582L18.1742 11.284C18.3621 11.4925 18.5444 11.6946 18.6784 11.8864C18.8316 12.1057 18.9606 12.3632 18.9927 12.6904C19.0251 13.0206 18.9457 13.3044 18.8387 13.5535C18.7435 13.775 18.6023 14.021 18.4538 14.2796L17.8301 15.3662C17.6814 15.6254 17.5404 15.8712 17.3977 16.0642C17.2369 16.2819 17.039 16.4831 16.7558 16.6121C16.4766 16.7393 16.2066 16.756 15.948 16.7328C15.7197 16.7123 15.4575 16.6552 15.1822 16.5953L15.1361 16.5853C15.0263 16.5614 14.911 16.5359 14.7911 16.5089C14.4849 16.4399 14.14 16.5059 13.8067 16.7014C13.4548 16.9077 13.2049 17.2046 13.103 17.5304C13.0735 17.6249 13.0447 17.716 13.0167 17.8035L13.0064 17.8361C12.9203 18.1058 12.8374 18.3659 12.7414 18.5781C12.6319 18.8201 12.483 19.0546 12.2381 19.2403C11.9901 19.4284 11.7269 19.5011 11.473 19.5326C11.2478 19.5606 10.9813 19.5606 10.7014 19.5605H9.29825C9.0183 19.5606 8.75181 19.5606 8.52664 19.5326C8.27269 19.5011 8.00953 19.4284 7.76153 19.2403C7.51663 19.0546 7.3677 18.8201 7.25826 18.5781C7.16226 18.3659 7.07931 18.1058 6.99327 17.8361L6.98288 17.8035C6.9549 17.7159 6.92605 17.6246 6.89646 17.53C6.79467 17.2045 6.54495 16.9078 6.19334 16.7016C5.86029 16.5064 5.51572 16.4404 5.20981 16.5094C5.08432 16.5377 4.96402 16.5643 4.84959 16.5891L4.81779 16.596C4.54244 16.6559 4.28026 16.713 4.05197 16.7335C3.79335 16.7567 3.52336 16.74 3.24412 16.6128C2.96096 16.4838 2.76307 16.2826 2.60218 16.0649C2.45956 15.8719 2.31857 15.6262 2.16985 15.367L1.54621 14.2804C1.39773 14.0218 1.25649 13.7758 1.16129 13.5542C1.05427 13.3051 0.974919 13.0213 1.00733 12.6911C1.03945 12.3639 1.16838 12.1064 1.32159 11.8871C1.45561 11.6953 1.63789 11.4931 1.82585 11.2846L1.84911 11.2588C1.92603 11.1735 2.00716 11.0841 2.09219 10.9911C2.29053 10.7743 2.40616 10.4451 2.40616 10.0606C2.40616 9.67569 2.29042 9.34612 2.09182 9.12901C2.00706 9.03635 1.92618 8.94721 1.84948 8.86211C1.84172 8.8535 1.83397 8.8449 1.82622 8.8363C1.63829 8.62785 1.45604 8.42568 1.32204 8.23392C1.16884 8.01468 1.03992 7.75723 1.00779 7.43001C0.975364 7.09987 1.05469 6.81606 1.16167 6.56701C1.25684 6.34548 1.39804 6.0995 1.54647 5.84089C1.55223 5.83086 1.558 5.82081 1.56378 5.81073L2.15303 4.78384C2.1587 4.77395 2.16436 4.76408 2.17001 4.75423C2.31872 4.49499 2.45971 4.24921 2.60233 4.05617C2.76322 3.8384 2.96111 3.63715 3.2443 3.50814C3.52356 3.38092 3.79357 3.3642 4.05222 3.38743C4.28053 3.40794 4.54274 3.46498 4.81813 3.52488C4.82871 3.52718 4.83932 3.52949 4.84994 3.5318C4.84994 3.5318 4.84765 3.52931 4.87561 3.53846L4.90129 3.54513L4.84994 3.5318C4.9645 3.5567 5.08494 3.58332 5.21059 3.61164C5.51632 3.68056 5.86071 3.61467 6.19358 3.4195C6.54505 3.21344 6.79466 2.91688 6.89641 2.59152C6.92603 2.49679 6.95492 2.40542 6.98292 2.31768C6.98639 2.30682 6.98985 2.29597 6.99331 2.28513C7.07935 2.01543 7.16229 1.75543 7.25828 1.54319C7.36771 1.30121 7.51662 1.06678 7.76148 0.881074C8.00944 0.693018 8.27257 0.620257 8.52649 0.588696C8.75162 0.560713 9.01808 0.56072 9.29799 0.560727C9.30881 0.560728 9.31965 0.560728 9.33052 0.560726L10.7011 0.560555C10.9811 0.560479 11.2476 0.560406 11.4728 0.588345Z" fill="#8A8A8A"/>
<path fill-rule="evenodd" clip-rule="evenodd" d="M10.0018 7.98416C8.85503 7.98416 7.92535 8.91398 7.92535 10.061C7.92535 11.208 8.85503 12.1378 10.0018 12.1378C11.1487 12.1378 12.0783 11.208 12.0783 10.061C12.0783 8.91398 11.1487 7.98416 10.0018 7.98416ZM6.54102 10.061C6.54102 8.14932 8.09048 6.59961 10.0018 6.59961C11.9132 6.59961 13.4627 8.14932 13.4627 10.061C13.4627 11.9726 11.9132 13.5224 10.0018 13.5224C8.09048 13.5224 6.54102 11.9726 6.54102 10.061Z" fill="#8A8A8A"/>
</svg>
