<svg width="20" height="21" viewBox="0 0 20 21" fill="none" xmlns="http://www.w3.org/2000/svg">
<path fill-rule="evenodd" clip-rule="evenodd" d="M17.0561 10.8608L11.7566 17.4727H17.8325C18.2358 17.4727 18.5627 17.8281 18.5627 18.2666C18.5627 18.705 18.2358 19.0606 17.8325 19.0606H5.11071C4.82463 19.0606 4.59942 19.0607 4.37678 19.0198C4.10767 18.9706 3.84709 18.8767 3.60406 18.7417C3.403 18.63 3.22237 18.4837 2.99293 18.298L2.93209 18.2488C2.54567 17.9362 2.22399 17.6759 1.97579 17.4426C1.71809 17.2006 1.49307 16.9457 1.3313 16.6258C0.990788 15.9525 0.908918 15.1602 1.10353 14.4216C1.19599 14.0707 1.36341 13.7679 1.56527 13.4696C1.7597 13.1823 2.02019 12.8511 2.33323 12.453L9.28703 3.61058C9.84391 2.9024 10.3088 2.31124 10.7363 1.89451C11.1878 1.45434 11.6748 1.1298 12.2893 1.07011C12.9037 1.01043 13.4359 1.23599 13.952 1.58215C14.4407 1.90989 14.9946 2.40209 15.6582 2.99173L16.5022 3.7417C17.1997 4.36152 17.7806 4.87757 18.189 5.35394C18.6198 5.85623 18.938 6.40229 18.9921 7.09774C19.0462 7.79319 18.8169 8.38962 18.4699 8.96343C18.1408 9.50762 17.648 10.1224 17.0561 10.8608ZM15.5379 4.93571C16.2858 5.60024 16.788 6.04873 17.1207 6.43674C17.439 6.8079 17.5213 7.03361 17.5368 7.2316C17.5522 7.42959 17.5059 7.66712 17.2495 8.09113C16.9814 8.5344 16.5557 9.06824 15.9211 9.85991L14.4351 11.714L8.78454 6.69307L10.3647 4.68375C10.9625 3.92354 11.3648 3.41455 11.7113 3.07679C12.042 2.7544 12.2428 2.66885 12.4192 2.65172C12.5956 2.63458 12.8072 2.68007 13.1852 2.93362C13.5813 3.19925 14.0602 3.62264 14.7725 4.2556L15.5379 4.93571ZM7.83983 7.89437L3.46072 13.4628C3.12588 13.8886 2.9007 14.1757 2.74174 14.4106C2.58662 14.6399 2.53181 14.767 2.50761 14.8588C2.41915 15.1946 2.45636 15.5547 2.61114 15.8608C2.65348 15.9445 2.73286 16.0552 2.9309 16.2413C3.13384 16.432 3.41201 16.6576 3.82539 16.992C4.11232 17.2242 4.19041 17.2841 4.26869 17.3277C4.37915 17.389 4.4976 17.4317 4.61992 17.4542C4.7066 17.4701 4.80218 17.4727 5.15982 17.4727H9.8193L13.4797 12.9058L7.83983 7.89437Z" fill="#8A8A8A"/>
</svg>
