<svg width="20" height="21" viewBox="0 0 20 21" fill="none" xmlns="http://www.w3.org/2000/svg">
<path d="M15.157 2.60553L16.127 3.47429C16.6228 3.91829 17.0501 4.30087 17.3508 4.65301C17.6731 5.03041 17.9245 5.45577 17.953 5.99473C17.9815 6.5337 17.7764 6.98298 17.4957 7.39197C17.2338 7.77361 16.8493 8.19871 16.4031 8.69209L8.68947 17.2215C8.26875 17.6875 7.93599 18.0562 7.49506 18.2864C7.05413 18.5165 6.56024 18.5793 5.93579 18.6588L4.07287 18.8974C3.57676 18.961 3.12816 19.0184 2.76259 19.014C2.36385 19.0091 1.92972 18.9316 1.56533 18.6053C1.20094 18.2789 1.07792 17.8573 1.03113 17.4634C0.988219 17.1019 0.998591 16.652 1.01007 16.1543L1.05288 14.2858C1.0667 13.6595 1.07764 13.1641 1.2613 12.7036C1.44497 12.243 1.77837 11.875 2.1999 11.4097L9.91363 2.88025C10.3598 2.38683 10.7442 1.96169 11.0981 1.66245C11.4774 1.34174 11.9048 1.09156 12.4464 1.06318C12.988 1.03481 13.4395 1.23893 13.8505 1.51823C14.234 1.77883 14.6612 2.16147 15.157 2.60553Z" fill="#FF6E3F"/>
<path d="M11.2246 17.563C10.8091 17.563 10.4722 17.8983 10.4722 18.3118C10.4722 18.7254 10.8091 19.0606 11.2246 19.0606H18.2475C18.6631 19.0606 19 18.7254 19 18.3118C19 17.8983 18.6631 17.563 18.2475 17.563H11.2246Z" fill="#FF6E3F"/>
</svg>
