<svg width="20" height="21" viewBox="0 0 20 21" fill="none" xmlns="http://www.w3.org/2000/svg">
<path fill-rule="evenodd" clip-rule="evenodd" d="M5.23658 1.06055H5.14591C4.4316 1.06053 3.82963 1.06051 3.34533 1.11776C2.8342 1.17818 2.35677 1.31123 1.94631 1.64808C1.81526 1.75563 1.69508 1.87581 1.58753 2.00686C1.25068 2.41732 1.11763 2.89475 1.05721 3.40588C0.999966 3.89018 0.999982 4.49211 1 5.20642V5.29713C0.999982 6.01145 0.999966 6.61342 1.05721 7.09772C1.11763 7.60885 1.25068 8.08628 1.58753 8.49674C1.69508 8.62779 1.81526 8.74797 1.94631 8.85552C2.35677 9.19237 2.8342 9.32542 3.34533 9.38584C3.82963 9.44309 4.43156 9.44307 5.14587 9.44305H5.23659C5.9509 9.44307 6.55287 9.44309 7.03716 9.38584C7.5483 9.32542 8.02573 9.19237 8.43618 8.85552C8.56724 8.74797 8.68741 8.62779 8.79497 8.49674C9.13182 8.08628 9.26486 7.60885 9.32528 7.09772C9.38253 6.61342 9.38251 6.01149 9.38249 5.29718V5.20646C9.38251 4.49215 9.38253 3.89018 9.32528 3.40588C9.26486 2.89475 9.13182 2.41732 8.79497 2.00686C8.68741 1.87581 8.56724 1.75563 8.43618 1.64808C8.02573 1.31123 7.5483 1.17818 7.03716 1.11776C6.55287 1.06051 5.95089 1.06053 5.23658 1.06055ZM3.52292 2.62015C3.90792 2.57464 4.41987 2.5734 5.19125 2.5734C5.96262 2.5734 6.47457 2.57464 6.85957 2.62015C7.22787 2.66368 7.38019 2.73854 7.47644 2.81752C7.5309 2.86222 7.58083 2.91215 7.62552 2.9666C7.70451 3.06285 7.77936 3.21518 7.82289 3.58347C7.8684 3.96848 7.86964 4.48043 7.86964 5.2518C7.86964 6.02318 7.8684 6.53512 7.82289 6.92013C7.77936 7.28842 7.70451 7.44075 7.62552 7.537C7.58083 7.59145 7.5309 7.64138 7.47644 7.68608C7.38019 7.76506 7.22787 7.83992 6.85957 7.88345C6.47457 7.92896 5.96262 7.9302 5.19125 7.9302C4.41987 7.9302 3.90792 7.92896 3.52292 7.88345C3.15463 7.83992 3.0023 7.76506 2.90605 7.68608C2.8516 7.64138 2.80166 7.59145 2.75697 7.537C2.67798 7.44075 2.60313 7.28842 2.5596 6.92013C2.51409 6.53512 2.51285 6.02318 2.51285 5.2518C2.51285 4.48043 2.51409 3.96848 2.5596 3.58347C2.60313 3.21518 2.67798 3.06285 2.75697 2.9666C2.80166 2.91215 2.8516 2.86222 2.90605 2.81752C3.0023 2.73854 3.15463 2.66368 3.52292 2.62015Z" fill="#8A8A8A"/>
<path fill-rule="evenodd" clip-rule="evenodd" d="M14.854 1.06055H14.7633C14.049 1.06053 13.447 1.06051 12.9627 1.11776C12.4516 1.17818 11.9742 1.31123 11.5637 1.64808C11.4326 1.75563 11.3125 1.87581 11.2049 2.00686C10.8681 2.41732 10.735 2.89475 10.6746 3.40588C10.6174 3.89018 10.6174 4.49212 10.6174 5.20644V5.29714C10.6174 6.01146 10.6174 6.61342 10.6746 7.09772C10.735 7.60885 10.8681 8.08628 11.2049 8.49674C11.3125 8.62779 11.4326 8.74797 11.5637 8.85552C11.9742 9.19237 12.4516 9.32542 12.9627 9.38584C13.447 9.44309 14.049 9.44307 14.7633 9.44305H14.854C15.5683 9.44307 16.1703 9.44309 16.6546 9.38584C17.1657 9.32542 17.6431 9.19237 18.0536 8.85552C18.1846 8.74797 18.3048 8.62779 18.4124 8.49674C18.7492 8.08628 18.8823 7.60885 18.9427 7.09772C18.9999 6.6134 18.9999 6.01145 18.9999 5.2971V5.2065C18.9999 4.49215 18.9999 3.8902 18.9427 3.40588C18.8823 2.89475 18.7492 2.41732 18.4124 2.00686C18.3048 1.87581 18.1846 1.75563 18.0536 1.64808C17.6431 1.31123 17.1657 1.17818 16.6546 1.11776C16.1703 1.06051 15.5683 1.06053 14.854 1.06055ZM13.1403 2.62015C13.5253 2.57464 14.0373 2.5734 14.8086 2.5734C15.58 2.5734 16.092 2.57464 16.477 2.62015C16.8453 2.66368 16.9976 2.73854 17.0938 2.81752C17.1483 2.86222 17.1982 2.91215 17.2429 2.9666C17.3219 3.06285 17.3968 3.21518 17.4403 3.58347C17.4858 3.96848 17.487 4.48043 17.487 5.2518C17.487 6.02318 17.4858 6.53512 17.4403 6.92013C17.3968 7.28842 17.3219 7.44075 17.2429 7.537C17.1982 7.59145 17.1483 7.64138 17.0938 7.68608C16.9976 7.76506 16.8453 7.83992 16.477 7.88345C16.092 7.92896 15.58 7.9302 14.8086 7.9302C14.0373 7.9302 13.5253 7.92896 13.1403 7.88345C12.772 7.83992 12.6197 7.76506 12.5234 7.68608C12.469 7.64138 12.4191 7.59145 12.3744 7.537C12.2954 7.44075 12.2205 7.28842 12.177 6.92013C12.1315 6.53512 12.1302 6.02318 12.1302 5.2518C12.1302 4.48043 12.1315 3.96848 12.177 3.58347C12.2205 3.21518 12.2954 3.06285 12.3744 2.9666C12.4191 2.91215 12.469 2.86222 12.5234 2.81752C12.6197 2.73854 12.772 2.66368 13.1403 2.62015Z" fill="#8A8A8A"/>
<path fill-rule="evenodd" clip-rule="evenodd" d="M5.23659 10.6782H5.14591C4.43159 10.6782 3.82963 10.6782 3.34533 10.7354C2.8342 10.7958 2.35677 10.9289 1.94631 11.2657C1.81526 11.3733 1.69508 11.4935 1.58753 11.6245C1.25068 12.035 1.11763 12.5124 1.05721 13.0235C0.999966 13.5078 0.999982 14.1098 1 14.8241V14.9148C0.999982 15.6291 0.999966 16.2311 1.05721 16.7154C1.11763 17.2265 1.25068 17.7039 1.58753 18.1144C1.69508 18.2454 1.81526 18.3656 1.94631 18.4732C2.35677 18.81 2.8342 18.9431 3.34533 19.0035C3.82964 19.0607 4.4316 19.0607 5.14594 19.0607H5.23655C5.95089 19.0607 6.55285 19.0607 7.03716 19.0035C7.5483 18.9431 8.02573 18.81 8.43618 18.4732C8.56724 18.3656 8.68741 18.2454 8.79497 18.1144C9.13182 17.7039 9.26486 17.2265 9.32528 16.7154C9.38253 16.2311 9.38251 15.6291 9.38249 14.9148V14.8241C9.38251 14.1098 9.38253 13.5078 9.32528 13.0235C9.26486 12.5124 9.13182 12.035 8.79497 11.6245C8.68741 11.4935 8.56724 11.3733 8.43618 11.2657C8.02573 10.9289 7.5483 10.7958 7.03716 10.7354C6.55286 10.6782 5.95091 10.6782 5.23659 10.6782ZM3.52292 12.2378C3.90792 12.1923 4.41987 12.1911 5.19125 12.1911C5.96262 12.1911 6.47457 12.1923 6.85957 12.2378C7.22787 12.2813 7.38019 12.3562 7.47644 12.4352C7.5309 12.4799 7.58083 12.5298 7.62552 12.5843C7.70451 12.6805 7.77936 12.8328 7.82289 13.2011C7.8684 13.5861 7.86964 14.0981 7.86964 14.8695C7.86964 15.6408 7.8684 16.1528 7.82289 16.5378C7.77936 16.9061 7.70451 17.0584 7.62552 17.1546C7.58083 17.2091 7.5309 17.259 7.47644 17.3037C7.38019 17.3827 7.22787 17.4576 6.85957 17.5011C6.47457 17.5466 5.96262 17.5479 5.19125 17.5479C4.41987 17.5479 3.90792 17.5466 3.52292 17.5011C3.15463 17.4576 3.0023 17.3827 2.90605 17.3037C2.8516 17.259 2.80166 17.2091 2.75697 17.1546C2.67798 17.0584 2.60313 16.9061 2.5596 16.5378C2.51409 16.1528 2.51285 15.6408 2.51285 14.8695C2.51285 14.0981 2.51409 13.5861 2.5596 13.2011C2.60313 12.8328 2.67798 12.6805 2.75697 12.5843C2.80166 12.5298 2.8516 12.4799 2.90605 12.4352C3.0023 12.3562 3.15463 12.2813 3.52292 12.2378Z" fill="#8A8A8A"/>
<path fill-rule="evenodd" clip-rule="evenodd" d="M14.854 10.6782H14.7633C14.049 10.6782 13.447 10.6782 12.9627 10.7354C12.4516 10.7958 11.9742 10.9289 11.5637 11.2657C11.4327 11.3733 11.3125 11.4935 11.2049 11.6245C10.8681 12.035 10.735 12.5124 10.6746 13.0235C10.6174 13.5078 10.6174 14.1098 10.6174 14.8241V14.9148C10.6174 15.6291 10.6174 16.2311 10.6746 16.7154C10.735 17.2265 10.8681 17.7039 11.2049 18.1144C11.3125 18.2454 11.4327 18.3656 11.5637 18.4732C11.9742 18.81 12.4516 18.9431 12.9627 19.0035C13.4471 19.0607 14.049 19.0607 14.7634 19.0607H14.854C15.5683 19.0607 16.1703 19.0607 16.6546 19.0035C17.1657 18.9431 17.6431 18.81 18.0536 18.4732C18.1846 18.3656 18.3048 18.2454 18.4124 18.1144C18.7492 17.7039 18.8823 17.2265 18.9427 16.7154C18.9999 16.2311 18.9999 15.6291 18.9999 14.9148V14.8241C18.9999 14.1098 18.9999 13.5079 18.9427 13.0235C18.8823 12.5124 18.7492 12.035 18.4124 11.6245C18.3048 11.4935 18.1846 11.3733 18.0536 11.2657C17.6431 10.9289 17.1657 10.7958 16.6546 10.7354C16.1703 10.6782 15.5683 10.6782 14.854 10.6782ZM13.1403 12.2378C13.5253 12.1923 14.0373 12.1911 14.8087 12.1911C15.58 12.1911 16.092 12.1923 16.477 12.2378C16.8453 12.2813 16.9976 12.3562 17.0938 12.4352C17.1483 12.4799 17.1982 12.5298 17.2429 12.5843C17.3219 12.6805 17.3968 12.8328 17.4403 13.2011C17.4858 13.5861 17.4871 14.0981 17.4871 14.8695C17.4871 15.6408 17.4858 16.1528 17.4403 16.5378C17.3968 16.9061 17.3219 17.0584 17.2429 17.1546C17.1982 17.2091 17.1483 17.259 17.0938 17.3037C16.9976 17.3827 16.8453 17.4576 16.477 17.5011C16.092 17.5466 15.58 17.5479 14.8087 17.5479C14.0373 17.5479 13.5253 17.5466 13.1403 17.5011C12.772 17.4576 12.6197 17.3827 12.5235 17.3037C12.469 17.259 12.4191 17.2091 12.3744 17.1546C12.2954 17.0584 12.2205 16.9061 12.177 16.5378C12.1315 16.1528 12.1303 15.6408 12.1303 14.8695C12.1303 14.0981 12.1315 13.5861 12.177 13.2011C12.2205 12.8328 12.2954 12.6805 12.3744 12.5843C12.4191 12.5298 12.469 12.4799 12.5235 12.4352C12.6197 12.3562 12.772 12.2813 13.1403 12.2378Z" fill="#8A8A8A"/>
</svg>
