<svg width="20" height="21" viewBox="0 0 20 21" fill="none" xmlns="http://www.w3.org/2000/svg">
<path fill-rule="evenodd" clip-rule="evenodd" d="M5.19547 1.06055H5.11223C4.38906 1.06053 3.78576 1.06051 3.30179 1.11772C2.79328 1.17783 2.32718 1.30922 1.92808 1.63676C1.79955 1.74224 1.68169 1.8601 1.57621 1.98863C1.24867 2.38773 1.11728 2.85383 1.05717 3.36234C0.999965 3.84631 0.999982 4.44958 1 5.17275V5.25602C0.999982 5.9792 0.999965 6.58248 1.05717 7.06645C1.11728 7.57497 1.24867 8.04106 1.57621 8.44017C1.68169 8.5687 1.79955 8.68655 1.92808 8.79204C2.32718 9.11957 2.79328 9.25097 3.30179 9.31107C3.78577 9.36828 4.38904 9.36826 5.11223 9.36824H5.19547C5.91866 9.36826 6.52193 9.36828 7.0059 9.31107C7.51442 9.25097 7.98051 9.11957 8.37962 8.79204C8.50815 8.68655 8.626 8.5687 8.73149 8.44017C9.05902 8.04106 9.19042 7.57497 9.25052 7.06645C9.30773 6.58248 9.30771 5.97921 9.30769 5.25602V5.17278C9.30771 4.44959 9.30773 3.84632 9.25052 3.36234C9.19042 2.85383 9.05902 2.38773 8.73149 1.98863C8.626 1.8601 8.50815 1.74224 8.37962 1.63676C7.98051 1.30922 7.51442 1.17783 7.0059 1.11772C6.52193 1.06051 5.91865 1.06053 5.19547 1.06055ZM5.19547 10.7528H5.11223C4.38904 10.7528 3.78577 10.7528 3.30179 10.81C2.79328 10.8701 2.32718 11.0015 1.92808 11.329C1.79955 11.4345 1.68169 11.5524 1.57621 11.6809C1.24867 12.08 1.11728 12.5461 1.05717 13.0546C0.999965 13.5386 0.999982 14.1418 1 14.865V14.9483C0.999982 15.6715 0.999965 16.2747 1.05717 16.7587C1.11728 17.2672 1.24867 17.7333 1.57621 18.1324C1.68169 18.261 1.79955 18.3788 1.92808 18.4843C2.32718 18.8118 2.79328 18.9432 3.30179 19.0033C3.78577 19.0605 4.38904 19.0605 5.11223 19.0605H5.19547C5.91866 19.0605 6.52193 19.0605 7.0059 19.0033C7.51442 18.9432 7.98051 18.8118 8.37962 18.4843C8.50815 18.3788 8.626 18.261 8.73149 18.1324C9.05902 17.7333 9.19042 17.2672 9.25052 16.7587C9.30773 16.2747 9.30771 15.6715 9.30769 14.9483V14.865C9.30771 14.1418 9.30773 13.5386 9.25052 13.0546C9.19042 12.5461 9.05902 12.08 8.73149 11.6809C8.626 11.5524 8.50815 11.4345 8.37962 11.329C7.98051 11.0015 7.51442 10.8701 7.0059 10.81C6.52193 10.7528 5.91866 10.7528 5.19547 10.7528ZM14.8878 1.06055H14.8045C14.0813 1.06053 13.4781 1.06051 12.9941 1.11772C12.4856 1.17783 12.0195 1.30922 11.6204 1.63676C11.4919 1.74224 11.374 1.8601 11.2685 1.98863C10.941 2.38773 10.8096 2.85383 10.7495 3.36234C10.6923 3.84632 10.6923 4.44959 10.6923 5.17278V5.25602C10.6923 5.97921 10.6923 6.58248 10.7495 7.06645C10.8096 7.57497 10.941 8.04106 11.2685 8.44017C11.374 8.5687 11.4919 8.68655 11.6204 8.79204C12.0195 9.11957 12.4856 9.25097 12.9941 9.31107C13.4781 9.36828 14.0813 9.36826 14.8045 9.36824H14.8878C15.611 9.36826 16.2142 9.36828 16.6982 9.31107C17.2067 9.25097 17.6728 9.11957 18.0719 8.79204C18.2005 8.68655 18.3183 8.5687 18.4238 8.44017C18.7513 8.04106 18.8827 7.57497 18.9428 7.06645C19 6.58248 19 5.97921 19 5.25602V5.17278C19 4.44959 19 3.84632 18.9428 3.36234C18.8827 2.85383 18.7513 2.38773 18.4238 1.98863C18.3183 1.8601 18.2005 1.74224 18.0719 1.63676C17.6728 1.30922 17.2067 1.17783 16.6982 1.11772C16.2142 1.06051 15.611 1.06053 14.8878 1.06055ZM14.8878 10.7528H14.8045C14.0813 10.7528 13.4781 10.7528 12.9941 10.81C12.4856 10.8701 12.0195 11.0015 11.6204 11.329C11.4919 11.4345 11.374 11.5524 11.2685 11.6809C10.941 12.08 10.8096 12.5461 10.7495 13.0546C10.6923 13.5386 10.6923 14.1418 10.6923 14.865V14.9483C10.6923 15.6715 10.6923 16.2747 10.7495 16.7587C10.8096 17.2672 10.941 17.7333 11.2685 18.1324C11.374 18.261 11.4919 18.3788 11.6204 18.4843C12.0195 18.8118 12.4856 18.9432 12.9941 19.0033C13.4781 19.0605 14.0813 19.0605 14.8045 19.0605H14.8878C15.611 19.0605 16.2142 19.0605 16.6982 19.0033C17.2067 18.9432 17.6728 18.8118 18.0719 18.4843C18.2005 18.3788 18.3183 18.261 18.4238 18.1324C18.7513 17.7333 18.8827 17.2672 18.9428 16.7587C19 16.2747 19 15.6715 19 14.9483V14.865C19 14.1418 19 13.5386 18.9428 13.0546C18.8827 12.5461 18.7513 12.08 18.4238 11.6809C18.3183 11.5524 18.2005 11.4345 18.0719 11.329C17.6728 11.0015 17.2067 10.8701 16.6982 10.81C16.2142 10.7528 15.611 10.7528 14.8878 10.7528Z" fill="#FF6E3F"/>
</svg>
