<svg width="18" height="18" viewBox="0 0 18 18" fill="none" xmlns="http://www.w3.org/2000/svg">
<path fill-rule="evenodd" clip-rule="evenodd" d="M3.02184 0.900401C3.03603 0.90041 3.05015 0.90041 3.06423 0.90041H4.46617C4.48024 0.90041 4.49437 0.90041 4.50855 0.900401C4.76855 0.900308 5.04562 0.900208 5.27881 0.931451C5.55065 0.967883 5.89321 1.06093 6.18107 1.34783C6.46893 1.63473 6.56229 1.97614 6.59884 2.24707C6.63019 2.47947 6.63009 2.75562 6.62999 3.01474C6.62999 3.02888 6.62998 3.04296 6.62998 3.05698V4.45425C6.62998 4.46827 6.62999 4.48235 6.62999 4.49649C6.63009 4.75561 6.63019 5.03176 6.59884 5.26416C6.56229 5.53509 6.46893 5.87651 6.18107 6.1634C5.89321 6.4503 5.55065 6.54336 5.27881 6.57978C5.04563 6.61103 4.76855 6.61092 4.50855 6.61083C4.49437 6.61082 4.48024 6.61082 4.46617 6.61082H3.06423C3.05015 6.61082 3.03603 6.61082 3.02184 6.61083C2.76184 6.61092 2.48477 6.61103 2.25159 6.57978C1.97975 6.54336 1.63719 6.4503 1.34933 6.1634C1.06146 5.87651 0.968108 5.53509 0.931559 5.26416C0.900207 5.03176 0.900308 4.7556 0.900401 4.49648C0.90041 4.48235 0.90041 4.46827 0.90041 4.45425V3.05698C0.90041 3.04297 0.90041 3.02888 0.900401 3.01475C0.900308 2.75562 0.900207 2.47947 0.931559 2.24707C0.968108 1.97614 1.06146 1.63473 1.34933 1.34783C1.63719 1.06093 1.97975 0.967883 2.25159 0.931451C2.48477 0.900208 2.76185 0.900308 3.02184 0.900401ZM2.70589 2.69985C2.70364 2.79755 2.70359 2.91151 2.70359 3.05698V4.45425C2.70359 4.59972 2.70364 4.71368 2.70589 4.81138C2.80391 4.81362 2.91826 4.81367 3.06423 4.81367H4.46617C4.61214 4.81367 4.72648 4.81362 4.8245 4.81138C4.82675 4.71368 4.8268 4.59972 4.8268 4.45425V3.05698C4.8268 2.91151 4.82675 2.79755 4.8245 2.69985C4.72648 2.69761 4.61214 2.69756 4.46617 2.69756H3.06423C2.91826 2.69756 2.80391 2.69761 2.70589 2.69985Z" fill="#8A8A8A"/>
<path fill-rule="evenodd" clip-rule="evenodd" d="M3.02184 11.3887C3.03603 11.3887 3.05015 11.3887 3.06423 11.3887H4.46617C4.48024 11.3887 4.49437 11.3887 4.50855 11.3887C4.76855 11.3886 5.04562 11.3885 5.27881 11.4197C5.55065 11.4561 5.89321 11.5492 6.18107 11.8361C6.46893 12.123 6.56229 12.4644 6.59884 12.7354C6.63019 12.9677 6.63009 13.2439 6.62999 13.503C6.62999 13.5171 6.62998 13.5312 6.62998 13.5453V14.9425C6.62998 14.9566 6.62999 14.9706 6.62999 14.9847C6.63009 15.2438 6.63019 15.52 6.59884 15.7524C6.56229 16.0233 6.46893 16.3648 6.18107 16.6516C5.89321 16.9385 5.55065 17.0316 5.27881 17.068C5.04563 17.0993 4.76855 17.0992 4.50855 17.0991C4.49437 17.0991 4.48024 17.0991 4.46617 17.0991H3.06423C3.05015 17.0991 3.03603 17.0991 3.02184 17.0991C2.76184 17.0992 2.48477 17.0993 2.25159 17.068C1.97975 17.0316 1.63719 16.9385 1.34933 16.6516C1.06146 16.3648 0.968108 16.0233 0.931559 15.7524C0.900207 15.52 0.900308 15.2438 0.900401 14.9847C0.90041 14.9706 0.90041 14.9566 0.90041 14.9425V13.5453C0.90041 13.5312 0.90041 13.5171 0.900401 13.503C0.900308 13.2439 0.900207 12.9677 0.931559 12.7354C0.968108 12.4644 1.06146 12.123 1.34933 11.8361C1.63719 11.5492 1.97975 11.4561 2.25159 11.4197C2.48477 11.3885 2.76185 11.3886 3.02184 11.3887ZM2.70589 13.1881C2.70364 13.2858 2.70359 13.3997 2.70359 13.5453V14.9425C2.70359 15.088 2.70364 15.202 2.70589 15.2996C2.80391 15.3019 2.91826 15.302 3.06423 15.302H4.46617C4.61214 15.302 4.72648 15.3019 4.8245 15.2996C4.82675 15.202 4.8268 15.088 4.8268 14.9425V13.5453C4.8268 13.3997 4.82675 13.2858 4.8245 13.1881C4.72648 13.1859 4.61214 13.1858 4.46617 13.1858H3.06423C2.91826 13.1858 2.80391 13.1859 2.70589 13.1881Z" fill="#8A8A8A"/>
<path fill-rule="evenodd" clip-rule="evenodd" d="M13.4915 0.900401C13.5057 0.90041 13.5199 0.90041 13.5339 0.90041H14.9358C14.95 0.90041 14.9641 0.90041 14.9782 0.900401C15.2382 0.900308 15.5153 0.900208 15.7485 0.931451C16.0203 0.967883 16.3629 1.06093 16.6508 1.34783C16.9386 1.63473 17.032 1.97614 17.0686 2.24707C17.0999 2.47947 17.0998 2.75562 17.0997 3.01474C17.0997 3.02888 17.0997 3.04296 17.0997 3.05698V4.45425C17.0997 4.46827 17.0997 4.48235 17.0997 4.49649C17.0998 4.75561 17.0999 5.03176 17.0686 5.26416C17.032 5.53509 16.9386 5.87651 16.6508 6.1634C16.3629 6.4503 16.0203 6.54336 15.7485 6.57978C15.5153 6.61103 15.2382 6.61092 14.9782 6.61083C14.9641 6.61082 14.95 6.61082 14.9358 6.61082H13.5339C13.5199 6.61082 13.5057 6.61082 13.4915 6.61083C13.2315 6.61092 12.9545 6.61103 12.7213 6.57978C12.4495 6.54336 12.1069 6.4503 11.819 6.1634C11.5311 5.87651 11.4378 5.53509 11.4013 5.26416C11.3699 5.03176 11.37 4.7556 11.3701 4.49648C11.3701 4.48235 11.3701 4.46827 11.3701 4.45425V3.05698C11.3701 3.04297 11.3701 3.02888 11.3701 3.01475C11.37 2.75562 11.3699 2.47947 11.4013 2.24707C11.4378 1.97614 11.5311 1.63473 11.819 1.34783C12.1069 1.06093 12.4495 0.967883 12.7213 0.931451C12.9545 0.900208 13.2316 0.900308 13.4915 0.900401ZM13.1756 2.69985C13.1734 2.79755 13.1733 2.91151 13.1733 3.05698V4.45425C13.1733 4.59972 13.1734 4.71368 13.1756 4.81138C13.2736 4.81362 13.3879 4.81367 13.5339 4.81367H14.9358C15.0818 4.81367 15.1962 4.81362 15.2942 4.81138C15.2965 4.71368 15.2965 4.59972 15.2965 4.45425V3.05698C15.2965 2.91151 15.2965 2.79755 15.2942 2.69985C15.1962 2.69761 15.0818 2.69756 14.9358 2.69756H13.5339C13.3879 2.69756 13.2736 2.69761 13.1756 2.69985Z" fill="#8A8A8A"/>
<path d="M8.12695 1.89269C8.12695 1.55382 8.12695 1.38437 8.23258 1.2791C8.3382 1.17383 8.50821 1.17383 8.84822 1.17383H9.1507C9.49072 1.17383 9.66073 1.17383 9.76639 1.2791C9.87205 1.38437 9.87205 1.55382 9.87205 1.89269V2.1942C9.87205 2.53307 9.87205 2.70251 9.76639 2.80778C9.66073 2.91306 9.49072 2.91306 9.1507 2.91306H8.84822C8.50821 2.91306 8.3382 2.91306 8.23258 2.80778C8.12695 2.70251 8.12695 2.53307 8.12695 2.1942V1.89269Z" fill="#8A8A8A"/>
<path d="M8.12695 5.36925C8.12695 5.03038 8.12695 4.86094 8.23258 4.75566C8.3382 4.65039 8.50821 4.65039 8.84822 4.65039H9.1507C9.49072 4.65039 9.66073 4.65039 9.76639 4.75566C9.87205 4.86094 9.87205 5.03038 9.87205 5.36925V5.67077C9.87205 6.00963 9.87205 6.17907 9.76639 6.28434C9.66073 6.38962 9.49072 6.38962 9.1507 6.38962H8.84822C8.50821 6.38962 8.3382 6.38962 8.23258 6.28434C8.12695 6.17907 8.12695 6.00963 8.12695 5.67077V5.36925Z" fill="#8A8A8A"/>
<path d="M8.12695 8.84776C8.12695 8.5089 8.12695 8.33945 8.23258 8.23418C8.3382 8.12891 8.50821 8.12891 8.84822 8.12891H9.1507C9.49072 8.12891 9.66073 8.12891 9.76639 8.23418C9.87205 8.33945 9.87205 8.5089 9.87205 8.84776V9.14927C9.87205 9.48812 9.87205 9.65759 9.76639 9.76289C9.66073 9.8681 9.49072 9.8681 9.1507 9.8681H8.84822C8.50821 9.8681 8.3382 9.8681 8.23258 9.76289C8.12695 9.65759 8.12695 9.48812 8.12695 9.14927V8.84776Z" fill="#8A8A8A"/>
<path d="M8.12695 12.3282C8.12695 11.9894 8.12695 11.82 8.23258 11.7147C8.3382 11.6094 8.50821 11.6094 8.84822 11.6094H9.1507C9.49072 11.6094 9.66073 11.6094 9.76639 11.7147C9.87205 11.82 9.87205 11.9894 9.87205 12.3282V12.6298C9.87205 12.9686 9.87205 13.138 9.76639 13.2433C9.66073 13.3486 9.49072 13.3486 9.1507 13.3486H8.84822C8.50821 13.3486 8.3382 13.3486 8.23258 13.2433C8.12695 13.138 8.12695 12.9686 8.12695 12.6298V12.3282Z" fill="#8A8A8A"/>
<path d="M8.12695 15.8067C8.12695 15.4679 8.12695 15.2984 8.23258 15.1931C8.3382 15.0879 8.50821 15.0879 8.84822 15.0879H9.1507C9.49072 15.0879 9.66073 15.0879 9.76639 15.1931C9.87205 15.2984 9.87205 15.4679 9.87205 15.8067V16.1082C9.87205 16.4471 9.87205 16.6165 9.76639 16.7218C9.66073 16.8271 9.49072 16.8271 9.1507 16.8271H8.84822C8.50821 16.8271 8.3382 16.8271 8.23258 16.7218C8.12695 16.6165 8.12695 16.4471 8.12695 16.1082V15.8067Z" fill="#8A8A8A"/>
<path d="M11.6172 15.8067C11.6172 15.4679 11.6172 15.2984 11.7228 15.1931C11.8284 15.0879 11.9984 15.0879 12.3384 15.0879H12.641C12.981 15.0879 13.1511 15.0879 13.2566 15.1931C13.3623 15.2984 13.3623 15.4679 13.3623 15.8067V16.1082C13.3623 16.4471 13.3623 16.6165 13.2566 16.7218C13.1511 16.8271 12.981 16.8271 12.641 16.8271H12.3384C11.9984 16.8271 11.8284 16.8271 11.7228 16.7218C11.6172 16.6165 11.6172 16.4471 11.6172 16.1082V15.8067Z" fill="#8A8A8A"/>
<path d="M14.9717 15.8067C14.9717 15.4679 14.9717 15.2984 15.0773 15.1931C15.183 15.0879 15.353 15.0879 15.6929 15.0879H15.9955C16.3355 15.0879 16.5055 15.0879 16.6111 15.1931C16.7168 15.2984 16.7168 15.4679 16.7168 15.8067V16.1082C16.7168 16.4471 16.7168 16.6165 16.6111 16.7218C16.5055 16.8271 16.3355 16.8271 15.9955 16.8271H15.6929C15.353 16.8271 15.183 16.8271 15.0773 16.7218C14.9717 16.6165 14.9717 16.4471 14.9717 16.1082V15.8067Z" fill="#8A8A8A"/>
<path d="M16.1313 8.12891C16.4713 8.12891 16.6413 8.12891 16.7469 8.23418C16.8525 8.33945 16.8525 8.5089 16.8525 8.84776V9.14927C16.8525 9.48812 16.8525 9.65759 16.7469 9.76289C16.6413 9.8681 16.4713 9.8681 16.1313 9.8681H15.8288C15.4888 9.8681 15.3187 9.8681 15.2131 9.76289C15.1074 9.65759 15.1074 9.48812 15.1074 9.14927V8.84776C15.1074 8.5089 15.1074 8.33945 15.2131 8.23418C15.3187 8.12891 15.4888 8.12891 15.8288 8.12891H16.1313Z" fill="#8A8A8A"/>
<path d="M16.1313 11.6094C16.4713 11.6094 16.6413 11.6094 16.7469 11.7147C16.8525 11.82 16.8525 11.9894 16.8525 12.3282V12.6298C16.8525 12.9686 16.8525 13.138 16.7469 13.2433C16.6413 13.3486 16.4713 13.3486 16.1313 13.3486H15.8288C15.4888 13.3486 15.3187 13.3486 15.2131 13.2433C15.1074 13.138 15.1074 12.9686 15.1074 12.6298V12.3282C15.1074 11.9894 15.1074 11.82 15.2131 11.7147C15.3187 11.6094 15.4888 11.6094 15.8288 11.6094H16.1313Z" fill="#8A8A8A"/>
<path d="M12.641 8.12891C12.981 8.12891 13.1511 8.12891 13.2566 8.23418C13.3623 8.33945 13.3623 8.5089 13.3623 8.84776V9.14927C13.3623 9.48812 13.3623 9.65759 13.2566 9.76289C13.1511 9.8681 12.981 9.8681 12.641 9.8681H12.3384C11.9984 9.8681 11.8284 9.8681 11.7228 9.76289C11.6172 9.65759 11.6172 9.48812 11.6172 9.14927V8.84776C11.6172 8.5089 11.6172 8.33945 11.7228 8.23418C11.8284 8.12891 11.9984 8.12891 12.3384 8.12891H12.641Z" fill="#8A8A8A"/>
<path d="M12.641 11.6094C12.981 11.6094 13.1511 11.6094 13.2566 11.7147C13.3623 11.82 13.3623 11.9894 13.3623 12.3282V12.6298C13.3623 12.9686 13.3623 13.138 13.2566 13.2433C13.1511 13.3486 12.981 13.3486 12.641 13.3486H12.3384C11.9984 13.3486 11.8284 13.3486 11.7228 13.2433C11.6172 13.138 11.6172 12.9686 11.6172 12.6298V12.3282C11.6172 11.9894 11.6172 11.82 11.7228 11.7147C11.8284 11.6094 11.9984 11.6094 12.3384 11.6094H12.641Z" fill="#8A8A8A"/>
<path d="M5.66051 8.12891C6.00052 8.12891 6.17053 8.12891 6.27615 8.23418C6.38178 8.33945 6.38178 8.5089 6.38178 8.84776V9.14927C6.38178 9.48812 6.38178 9.65759 6.27615 9.76289C6.17053 9.8681 6.00052 9.8681 5.66051 9.8681H5.35799C5.01798 9.8681 4.84797 9.8681 4.74234 9.76289C4.63672 9.65759 4.63672 9.48812 4.63672 9.14927V8.84776C4.63672 8.5089 4.63672 8.33945 4.74234 8.23418C4.84797 8.12891 5.01798 8.12891 5.35799 8.12891H5.66051Z" fill="#8A8A8A"/>
<path d="M2.17028 8.12891C2.51029 8.12891 2.6803 8.12891 2.78592 8.23418C2.89155 8.33945 2.89155 8.5089 2.89155 8.84776V9.14927C2.89155 9.48812 2.89155 9.65759 2.78592 9.76289C2.6803 9.8681 2.51029 9.8681 2.17028 9.8681H1.86775C1.52775 9.8681 1.35774 9.8681 1.25212 9.76289C1.14648 9.65759 1.14648 9.48812 1.14648 9.14927V8.84776C1.14648 8.5089 1.14648 8.33945 1.25212 8.23418C1.35774 8.12891 1.52775 8.12891 1.86775 8.12891H2.17028Z" fill="#8A8A8A"/>
</svg>
