<svg width="15" height="16" viewBox="0 0 15 16" fill="none" xmlns="http://www.w3.org/2000/svg">
<path fill-rule="evenodd" clip-rule="evenodd" d="M2.9232 1.48187C3.3365 1.51707 3.643 1.88065 3.60779 2.29394L3.58821 2.52383C4.61048 1.79562 5.84787 1.34331 7.19532 1.2824C10.9194 1.11407 14.0749 3.99661 14.2432 7.72073C14.3179 9.37329 13.791 10.9157 12.8568 12.1328C12.6042 12.4619 12.1328 12.524 11.8037 12.2714C11.4747 12.0188 11.4126 11.5474 11.6652 11.2183C12.3919 10.2714 12.8008 9.07449 12.7427 7.78856C12.6118 4.89317 10.1586 2.65209 7.26314 2.78297C6.25703 2.82845 5.33003 3.15402 4.55383 3.68165L4.75811 3.67771C5.17283 3.66972 5.51549 3.99944 5.52349 4.41415C5.53148 4.82887 5.20176 5.17154 4.78705 5.17952L2.68322 5.22006C2.47046 5.22416 2.26596 5.13782 2.12051 4.98249C1.97507 4.82717 1.90235 4.61743 1.92041 4.40541L2.11112 2.16646C2.14633 1.75316 2.50991 1.44666 2.9232 1.48187ZM1.63568 6.5483C2.04744 6.59838 2.34063 6.97278 2.29055 7.38454C2.25574 7.67066 2.24407 7.96394 2.25756 8.26247C2.38844 11.1578 4.84169 13.3989 7.73711 13.268C8.48126 13.2344 9.18041 13.0479 9.80711 12.7409C10.1796 12.5583 10.6295 12.7124 10.812 13.0848C10.9945 13.4573 10.8405 13.9073 10.468 14.0897C9.65959 14.4858 8.75899 14.7255 7.80491 14.7686C4.08079 14.9369 0.925329 12.0545 0.756999 8.33034C0.739728 7.94824 0.754622 7.5716 0.799442 7.20315C0.849527 6.7914 1.22393 6.4982 1.63568 6.5483Z" fill="#FAFAFA"/>
</svg>
