<svg width="20" height="21" viewBox="0 0 20 21" fill="none" xmlns="http://www.w3.org/2000/svg">
<path fill-rule="evenodd" clip-rule="evenodd" d="M3.8976 1.7753C4.44866 1.82224 4.85733 2.30701 4.81039 2.85807L4.78428 3.16458C6.1473 2.19364 7.79716 1.59056 9.59376 1.50935C14.5593 1.28491 18.7666 5.12829 18.991 10.0938C19.0906 12.2972 18.388 14.3537 17.1424 15.9766C16.8057 16.4154 16.1771 16.4981 15.7383 16.1613C15.2996 15.8246 15.2169 15.196 15.5536 14.7572C16.5226 13.4947 17.0678 11.8988 16.9903 10.1842C16.8158 6.32371 13.5448 3.3356 9.68419 3.5101C8.3427 3.57074 7.1067 4.00484 6.07177 4.70834L6.34415 4.70309C6.8971 4.69244 7.35399 5.13206 7.36465 5.68501C7.3753 6.23797 6.93568 6.69486 6.38273 6.70551L3.57762 6.75956C3.29395 6.76502 3.02128 6.6499 2.82735 6.4428C2.63343 6.2357 2.53646 5.95605 2.56054 5.67336L2.81483 2.68809C2.86177 2.13703 3.34654 1.72836 3.8976 1.7753ZM2.18091 8.53054C2.72992 8.59732 3.12084 9.09652 3.05406 9.64553C3.00765 10.027 2.99209 10.4181 3.01008 10.8161C3.18458 14.6766 6.45559 17.6647 10.3162 17.4902C11.3084 17.4454 12.2406 17.1967 13.0762 16.7873C13.5728 16.5439 14.1727 16.7493 14.416 17.2459C14.6594 17.7426 14.454 18.3425 13.9574 18.5858C12.8795 19.1139 11.6787 19.4335 10.4066 19.491C5.44105 19.7154 1.23377 15.8721 1.00933 10.9066C0.986304 10.3971 1.00616 9.89495 1.06592 9.40368C1.1327 8.85468 1.6319 8.46375 2.18091 8.53054Z" fill="#C0C0C0"/>
</svg>
