<svg width="21" height="22" viewBox="0 0 21 22" fill="none" xmlns="http://www.w3.org/2000/svg">
<path id="Vector" fill-rule="evenodd" clip-rule="evenodd" d="M10.5004 0.650391C4.78425 0.650391 0.150391 5.28425 0.150391 11.0004C0.150391 16.7166 4.78425 21.3504 10.5004 21.3504C16.2166 21.3504 20.8504 16.7166 20.8504 11.0004C20.8504 5.28425 16.2166 0.650391 10.5004 0.650391ZM11.9919 8.27861C12.3317 7.9389 12.8824 7.9389 13.2221 8.27861C13.5618 8.61833 13.5618 9.16911 13.2221 9.50882L11.7305 11.0004L13.2221 12.4919C13.5618 12.8317 13.5618 13.3825 13.2221 13.7222C12.8824 14.0619 12.3317 14.0619 11.9919 13.7222L10.5003 12.2307L9.00875 13.7222C8.66904 14.0619 8.11825 14.0619 7.77854 13.7222C7.43883 13.3825 7.43883 12.8317 7.77854 12.4919L9.27013 11.0004L7.77854 9.50882C7.43883 9.16911 7.43883 8.61833 7.77854 8.27861C8.11825 7.9389 8.66904 7.9389 9.00875 8.27861L10.5003 9.7702L11.9919 8.27861Z" fill="#C0C0C0"/>
</svg>
